<svg id="Group_82106" data-name="Group 82106" xmlns="http://www.w3.org/2000/svg" xmlns:xlink="http://www.w3.org/1999/xlink" width="34.449" height="35.066" viewBox="0 0 34.449 35.066">
  <defs>
    <clipPath id="clip-path">
      <rect id="Rectangle_25205" data-name="Rectangle 25205" width="34.449" height="35.066" fill="#8c939b"/>
    </clipPath>
  </defs>
  <g id="Group_80929" data-name="Group 80929" clip-path="url(#clip-path)">
    <path id="Path_167716" data-name="Path 167716" d="M9.331,58.328,0,48.914,19.167,29.556l9.32,9.424L9.331,58.328m8.05-24.756L11.87,39.15a5.169,5.169,0,0,1,6.112,1.056,5.357,5.357,0,0,1,1.076,6.075l5.456-5.511a2.607,2.607,0,0,1-.72-1.811,2.685,2.685,0,0,1,.735-1.8l-3.64-3.541a2.526,2.526,0,0,1-3.507-.042m-.817,15.215A5.2,5.2,0,0,1,10.5,47.671a5.182,5.182,0,0,1-1.1-5.888l-5.432,5.3a2.648,2.648,0,0,1,0,3.652L7.6,54.265a2.478,2.478,0,0,1,1.721-.678,2.568,2.568,0,0,1,1.78.725l5.46-5.526m-4.843-6.921.376.3a7.378,7.378,0,0,0-.6.9,1.473,1.473,0,0,0,.182,1.667,1.428,1.428,0,0,0,1.637.492,7.092,7.092,0,0,0,.893-.377c.3-.142.585-.317.889-.448a.348.348,0,0,1,.322.042.422.422,0,0,1,.04.352.966.966,0,0,1-1.364.541l-1.093,1,1.294,1.2c.023.021.051.036.039.027l.944-.9-.295-.44a1.611,1.611,0,0,0,.5-.055.586.586,0,0,1,.836.235c.007.011.029.011.061.022l.308-.326-.309-.339c.1-.112.2-.209.292-.312a2.4,2.4,0,0,0,.571-1.086,1.392,1.392,0,0,0-1.676-1.684,9.417,9.417,0,0,0-1.264.49c-.292.118-.574.27-.874.358-.329.1-.542-.158-.421-.48a.77.77,0,0,1,.19-.276c.373-.352.69-.363,1.213-.083l.971-.933-1.347-1.341c-.2.221-.4.447-.611.659-.272.273-.276.267-.041.562.039.049.073.1.12.167a2.2,2.2,0,0,0-.281,0,1.741,1.741,0,0,1-.636.086c-.187-.053-.327-.267-.486-.409l-.381.385" transform="translate(0 -23.261)" fill="#8c939b"/>
    <path id="Path_167717" data-name="Path 167717" d="M48.753,11.027l-2.279.6a12.235,12.235,0,0,0-6.412-7.933,11.723,11.723,0,0,0-7.36-1.1,12.106,12.106,0,0,0-9.459,8.061l2,.324-4.353,5.289L18.8,9.951c.349.052.664.1.979.145.256.039.514.073.768.125.183.038.264-.011.326-.2a14.275,14.275,0,0,1,2.766-4.907A13.969,13.969,0,0,1,32.2.214,14.156,14.156,0,0,1,45.566,4.93a14.2,14.2,0,0,1,3.153,5.835c.017.062.032.126.046.189a.3.3,0,0,1-.012.073" transform="translate(-14.795 0)" fill="#8c939b"/>
    <path id="Path_167718" data-name="Path 167718" d="M136.258,74.746l-1.642-1.766a12.5,12.5,0,0,0,3.349-9.552l2.383-.193a14.928,14.928,0,0,1-.726,6,14.715,14.715,0,0,1-3.364,5.512" transform="translate(-105.946 -49.766)" fill="#8c939b"/>
    <path id="Path_167719" data-name="Path 167719" d="M111.88,115.783l1.379,1.886a13.263,13.263,0,0,1-4.954,2.374l-.583-2.272c.725-.288,1.455-.535,2.145-.865s1.326-.735,2.013-1.123" transform="translate(-84.779 -91.124)" fill="#8c939b"/>
    <path id="Path_167720" data-name="Path 167720" d="M82.191,126.374c.059.751.122,1.539.187,2.356a14.422,14.422,0,0,1-4.533-.393c.047-.069.076-.124.115-.171.507-.6,1.013-1.2,1.528-1.8a.345.345,0,0,1,.239-.113c.807.031,1.614.074,2.465.116" transform="translate(-61.265 -99.367)" fill="#8c939b"/>
  </g>
</svg>
